<?xml version="1.0" encoding="UTF-8"?>
<svg id="Layer_1" data-name="Layer 1" xmlns="http://www.w3.org/2000/svg" version="1.1" viewBox="0 0 1152 1152">
  <defs>
    <style>
      .cls-1 {
        fill: none;
      }

      .cls-1, .cls-2, .cls-3 {
        stroke-width: 0px;
      }

      .cls-2 {
        fill: #000;
      }

      .cls-3 {
        fill: #fff;
      }
    </style>
  </defs>
  <g>
    <path class="cls-3" d="M1293.43,1293.43c-478.29,0-956.58,0-1434.87,0,0-478.29,0-956.58,0-1434.87,478.29,0,956.58,0,1434.87,0,0,478.29,0,956.58,0,1434.87ZM1027.53,581.49h-.39c0-84.47.3-168.95-.24-253.42-.12-18.44-.86-37.47-5.4-55.19-11.5-44.94-37.47-81-75.13-108-27.12-19.44-57.3-33.31-91.12-33.42-174.2-.57-348.41-1.69-522.58.51-56.88.72-104.45,29.18-139.02,74.61-27.55,36.21-39.47,78.73-39.46,124.46.04,169.42-.33,338.85.05,508.27.1,46.7,15.81,88.84,44.36,125.58,42.59,54.83,101.67,75.13,168.48,75.42,152.72.67,305.44.45,458.16.14,32.67-.07,64.96-5.39,93.84-21.33,69.39-38.3,107.35-97.07,108.24-177.07.97-86.85.22-173.72.22-260.58Z"/>
    <path class="cls-2" d="M1027.53,581.49c0,86.86.75,173.73-.22,260.58-.89,80-38.85,138.77-108.24,177.07-28.88,15.94-61.16,21.27-93.84,21.33-152.72.31-305.44.54-458.16-.14-66.81-.3-125.89-20.6-168.48-75.42-28.55-36.75-44.25-78.89-44.36-125.58-.38-169.42-.01-338.85-.05-508.27,0-45.73,11.91-88.26,39.46-124.46,34.56-45.42,82.14-73.89,139.02-74.61,174.17-2.2,348.39-1.08,522.58-.51,33.83.11,64,13.98,91.12,33.42,37.66,26.99,63.63,63.06,75.13,108,4.53,17.72,5.28,36.74,5.4,55.19.53,84.47.24,168.95.24,253.42h.39Z"/>
  </g>
  <rect class="cls-1" x="-141.43" y="-141.43" width="1434.87" height="1434.87"/>
</svg>